<!DOCTYPE svg PUBLIC "-//W3C//DTD SVG 1.1//EN" "http://www.w3.org/Graphics/SVG/1.1/DTD/svg11.dtd">
<!-- Uploaded to: SVG Repo, www.svgrepo.com, Transformed by: SVG Repo Mixer Tools -->
<svg fill="#224d43" height="800px" width="800px" version="1.1" id="Layer_1" xmlns="http://www.w3.org/2000/svg" xmlns:xlink="http://www.w3.org/1999/xlink" viewBox="-51.2 -51.2 614.40 614.40" xml:space="preserve" stroke="#224d43">
<g id="SVGRepo_bgCarrier" stroke-width="0">
<rect x="-51.2" y="-51.2" width="614.40" height="614.40" rx="307.2" fill="#f5f5dc" strokewidth="0"/>
</g>
<g id="SVGRepo_tracerCarrier" stroke-linecap="round" stroke-linejoin="round"/>
<g id="SVGRepo_iconCarrier"> <g> <g> <g> <path d="M315.038,332.802c0,40.416-5.364,79.624-15.104,110.401c-1.113,3.517,0.836,7.269,4.352,8.382 c0.671,0.213,1.349,0.313,2.017,0.313c2.834,0,5.465-1.819,6.365-4.665c10.142-32.047,15.727-72.687,15.727-114.433 c0-49.921-7.63-96.268-21.484-130.504c-1.385-3.42-5.281-5.071-8.696-3.686c-3.419,1.385-5.07,5.278-3.686,8.696 C307.563,239.516,315.038,285.258,315.038,332.802z"/> <path d="M205.697,451.898c0.667,0,1.346-0.099,2.017-0.314c3.516-1.112,5.465-4.864,4.351-8.381 c-9.739-30.778-15.103-69.986-15.103-110.401c0-47.545,7.475-93.286,20.509-125.495c1.384-3.419-0.267-7.313-3.686-8.696 c-3.42-1.385-7.313,0.267-8.696,3.686c-13.854,34.236-21.484,80.584-21.484,130.505c0,41.746,5.585,82.386,15.727,114.433 C200.232,450.079,202.862,451.898,205.697,451.898z"/> <path d="M270.837,332.802c0,40.861-1.78,80.541-5.011,111.729c-0.38,3.667,2.286,6.95,5.955,7.331 c0.233,0.023,0.465,0.036,0.696,0.036c3.379,0,6.279-2.557,6.635-5.99c3.277-31.631,5.082-71.799,5.082-113.105 c0-49.369-2.462-95.137-6.932-128.877c-0.484-3.656-3.838-6.229-7.497-5.743c-3.656,0.484-6.227,3.841-5.743,7.497 C268.353,238.375,270.837,284.709,270.837,332.802z"/> <path d="M239.523,451.898c0.23,0,0.463-0.012,0.696-0.036c3.669-0.38,6.334-3.662,5.955-7.331 c-3.231-31.19-5.011-70.868-5.011-111.729c0-48.093,2.484-94.427,6.816-127.123c0.484-3.656-2.087-7.012-5.743-7.497 c-3.664-0.476-7.013,2.088-7.497,5.743c-4.47,33.738-6.932,79.508-6.932,128.877c0,41.306,1.805,81.474,5.082,113.105 C233.244,449.342,236.144,451.898,239.523,451.898z"/> <path d="M349.969,467.479h-18.448c23.267-34.107,36.896-83.274,36.896-134.678c0-69.133-23.629-131.256-61.665-162.124 c-1.19-0.966-2.676-1.493-4.208-1.493h-6.373l20.874-89.757c0.835-3.593-1.4-7.181-4.992-8.017 c-3.591-0.831-7.181,1.4-8.017,4.992l-21.577,92.782h-11.344L286.026,7.292c0.338-3.673-2.364-6.924-6.037-7.263 c-3.683-0.346-6.924,2.365-7.263,6.037l-15.024,163.116h-5.039V73.462c0-3.688-2.991-6.678-6.678-6.678 c-3.688,0-6.678,2.991-6.678,6.678v95.722h-0.587L223.693,6.068c-0.338-3.673-3.583-6.377-7.263-6.037 c-3.673,0.338-6.377,3.59-6.037,7.263l14.911,161.892H214.38l-19.896-64.304c-1.091-3.524-4.832-5.496-8.353-4.405 c-3.524,1.09-5.496,4.831-4.405,8.353l20.047,64.793c-35.995,31.762-58.189,92.176-58.189,159.179 c0,51.404,13.629,100.571,36.895,134.678h-18.448c-3.688,0-6.678,2.991-6.678,6.678c0,20.867,16.976,37.843,37.843,37.843 h125.609c20.867,0,37.843-16.976,37.843-37.843C356.647,470.47,353.658,467.479,349.969,467.479z M156.94,332.801 c0-63.101,21.496-121.708,54.932-150.261h88.257c33.437,28.553,54.933,87.16,54.933,150.261 c0,52.822-14.936,102.859-40.078,134.678H197.017C171.876,435.661,156.94,385.623,156.94,332.801z M318.804,498.644H193.195 c-11.188,0-20.648-7.542-23.561-17.809h172.732C339.452,491.102,329.992,498.644,318.804,498.644z"/> </g> </g> </g> </g>
</svg>