<?xml version="1.0" encoding="iso-8859-1"?>
<!-- Uploaded to: SVG Repo, www.svgrepo.com, Generator: SVG Repo Mixer Tools -->
<svg fill="#000000" height="800px" width="800px" version="1.1" id="Layer_1" xmlns="http://www.w3.org/2000/svg" xmlns:xlink="http://www.w3.org/1999/xlink" 
	 viewBox="0 0 512 512" xml:space="preserve">
<g>
	<g>
		<path d="M508.664,186.153l-81.538-58.175c-2.66-1.898-6.211-1.976-8.952-0.197c-2.742,1.779-4.117,5.054-3.467,8.257l9.845,48.523
			l-87.337,142.241l-14.211-64.914c-0.8-3.652-4.035-6.255-7.774-6.255h-14.673c4.604-6.233,7.107-14.062,6.525-22.38
			c-0.06-0.867-0.164-1.818-0.306-2.837c0.729,0.726,1.427,1.381,2.085,1.952c6.197,5.386,13.965,8.283,22.095,8.282
			c0.799,0,1.603-0.028,2.407-0.085c8.994-0.629,17.205-4.726,23.12-11.532c5.916-6.807,8.827-15.508,8.198-24.502
			c-0.63-8.994-4.726-17.205-11.532-23.12c-0.657-0.571-1.404-1.171-2.224-1.792c1.027-0.002,1.985-0.032,2.852-0.092
			c7.331-0.513,14.139-3.317,19.688-8.107c3.326-2.872,3.695-7.897,0.823-11.223c-2.872-3.326-7.897-3.695-11.223-0.823
			c-2.927,2.527-6.524,4.006-10.401,4.278c-5.97,0.412-20.053-1.299-32.609-4.964c0.456-3.497,0.57-7.064,0.318-10.663
			c-0.251-3.599-0.862-7.115-1.8-10.514c11.921-5.381,25.631-9.04,31.599-9.46c9.822-0.693,18.359,6.739,19.046,16.554
			c0.294,4.195,3.788,7.402,7.93,7.402c0.187,0,0.376-0.006,0.564-0.02c4.384-0.307,7.689-4.11,7.382-8.493
			c-1.301-18.569-17.471-32.618-36.033-31.317c-0.867,0.06-1.818,0.164-2.836,0.306c0.725-0.729,1.381-1.427,1.952-2.084
			c5.916-6.807,8.827-15.508,8.198-24.502c-0.629-8.994-4.726-17.205-11.532-23.12c-6.807-5.917-15.513-8.827-24.502-8.198
			c-8.994,0.629-17.205,4.726-23.12,11.532c-0.571,0.657-1.171,1.404-1.792,2.224c-0.002-1.028-0.032-1.984-0.093-2.852
			c-0.63-8.997-4.726-17.21-11.533-23.125c-6.806-5.913-15.505-8.816-24.501-8.194c-18.568,1.3-32.618,17.465-31.319,36.033
			c0.06,0.867,0.164,1.817,0.306,2.835c-0.729-0.725-1.427-1.38-2.084-1.951c-14.048-12.211-35.412-10.715-47.622,3.335
			c-5.916,6.807-8.827,15.508-8.198,24.502s4.726,17.205,11.532,23.12c0.658,0.572,1.406,1.172,2.226,1.793
			c-1.028,0.002-1.985,0.033-2.853,0.093c-2.795,0.195-5.539,0.753-8.186,1.625c-7.421,0.918-14.289,4.246-19.663,9.621
			c-0.615,0.615-1.267,1.319-1.943,2.093c0.069-1.025,0.106-1.982,0.106-2.851c0-18.615-15.143-33.758-33.758-33.758
			s-33.758,15.143-33.758,33.758c0,0.869,0.037,1.826,0.106,2.851c-0.677-0.774-1.327-1.478-1.943-2.093
			c-6.376-6.377-14.853-9.889-23.87-9.889s-17.492,3.512-23.87,9.889c-13.161,13.161-13.161,34.577,0,47.739
			c0.615,0.615,1.319,1.266,2.092,1.943c-1.025-0.069-1.982-0.106-2.851-0.106C15.143,184.747,0,199.89,0,218.504
			c0,18.615,15.143,33.758,33.758,33.758c0.869,0,1.826-0.037,2.851-0.106c-0.774,0.676-1.477,1.326-2.092,1.943
			c-13.161,13.161-13.161,34.577,0,47.739c6.376,6.377,14.853,9.889,23.87,9.889c9.015,0,17.492-3.512,23.87-9.888
			c0.615-0.615,1.266-1.319,1.943-2.092c-0.069,1.025-0.106,1.981-0.106,2.85c0,18.615,15.143,33.758,33.758,33.758
			c1.833,0,3.632-0.153,5.386-0.435l-14.395,65.75c-0.94,4.293,1.778,8.534,6.072,9.475c0.574,0.125,1.146,0.186,1.709,0.186
			c3.657,0,6.951-2.538,7.765-6.257l17.183-78.486c6.192-6.123,10.036-14.615,10.036-23.99c0-0.869-0.037-1.826-0.106-2.851
			c0.677,0.773,1.327,1.478,1.943,2.093c6.376,6.377,14.853,9.889,23.87,9.889c9.015,0,17.492-3.512,23.87-9.889
			c8.218-8.218,11.305-19.654,9.259-30.289h98.386l35.945,164.206H117.669l1.909-8.716c0.94-4.293-1.778-8.534-6.072-9.475
			c-4.292-0.94-8.535,1.778-9.475,6.072l-4.023,18.375c-0.515,2.353,0.064,4.814,1.574,6.69c1.51,1.877,3.79,2.969,6.199,2.969
			h13.294v18.291c0,4.394,3.563,7.957,7.957,7.957h204.384c4.394,0,7.957-3.563,7.957-7.957v-18.291h13.286
			c2.409,0,4.688-1.092,6.199-2.969c0.439-0.545,0.789-1.144,1.067-1.771c0.021-0.037,0.05-0.069,0.067-0.108l75.834-178.776
			c1.717-4.045-0.172-8.717-4.218-10.432c-4.044-1.716-8.716,0.173-10.432,4.218L357.093,417.62l-14.971-68.393l93.17-151.742
			l11.653,8.314l-14.741,34.752c-1.717,4.045,0.172,8.717,4.218,10.432c1.014,0.431,2.068,0.634,3.103,0.634
			c3.098,0,6.043-1.821,7.329-4.852l15.63-36.847l43.267-9.514c3.071-0.676,5.458-3.097,6.087-6.178
			C512.468,191.147,511.224,187.978,508.664,186.153z M309.233,76.551c3.128-3.599,7.467-5.763,12.22-6.096
			c4.749-0.338,9.351,1.206,12.95,4.333c3.599,3.127,5.763,7.468,6.096,12.22c0.333,4.753-1.206,9.352-4.333,12.951
			c-3.933,4.526-15.11,13.272-26.572,19.547c-2.149-2.794-4.591-5.395-7.312-7.76c-2.723-2.367-5.642-4.423-8.709-6.164
			C298.191,93.361,305.299,81.076,309.233,76.551z M260.415,50.041c4.756-0.332,9.353,1.205,12.951,4.331
			c3.598,3.126,5.762,7.467,6.095,12.223c0.417,5.967-1.297,20.051-4.963,32.607c-3.496-0.456-7.064-0.569-10.664-0.316
			c-3.599,0.251-7.115,0.862-10.514,1.8c-5.381-11.922-9.042-25.631-9.46-31.599C243.175,59.272,250.6,50.728,260.415,50.041z
			 M190.596,84.857c6.454-7.425,17.746-8.216,25.171-1.762c4.525,3.934,13.272,15.11,19.547,26.572
			c-2.794,2.15-5.395,4.591-7.76,7.312c-2.367,2.723-4.423,5.642-6.163,8.71c-12.222-4.618-24.507-11.728-29.032-15.661
			C184.933,103.574,184.143,92.282,190.596,84.857z M169.75,207.893c12.27-4.537,26.206-7.232,32.19-7.232
			c9.838,0,17.843,8.004,17.843,17.843s-8.005,17.843-17.843,17.843c-5.984,0-19.92-2.696-32.19-7.232
			c0.7-3.429,1.069-6.978,1.069-10.612C170.819,214.871,170.45,211.323,169.75,207.893z M214.693,155.426
			c0.251,3.598,0.862,7.115,1.8,10.513c-2.244,1.012-4.553,1.966-6.872,2.852c2.588-8.628,1.652-18.089-2.794-26.116
			c2.735,0.604,5.494,1.3,8.183,2.086C214.555,148.258,214.442,151.827,214.693,155.426z M217.637,188.632
			c2.545-1.641,5.187-3.232,7.837-4.686c2.149,2.794,4.591,5.395,7.311,7.76c2.723,2.367,5.646,4.417,8.716,6.157
			c-1.857,4.918-4.118,9.844-6.415,14.273C233.129,201.926,226.561,193.34,217.637,188.632z M164.696,146.425
			c3.371-3.371,7.851-5.227,12.616-5.227s9.245,1.857,12.616,5.227s5.227,7.851,5.227,12.617c0,4.765-1.857,9.245-5.227,12.616
			c-4.244,4.244-16.021,12.205-27.902,17.665c-3.941-5.947-9.048-11.053-14.996-14.996
			C152.491,162.445,160.452,150.669,164.696,146.425z M117.848,116.57c9.839,0,17.843,8.005,17.843,17.843
			c0,5.984-2.695,19.92-7.232,32.19c-3.43-0.7-6.979-1.069-10.612-1.069c-3.634,0-7.182,0.369-10.612,1.069
			c-4.537-12.27-7.232-26.206-7.232-32.19C100.005,124.575,108.009,116.57,117.848,116.57z M45.77,146.425
			c3.371-3.371,7.851-5.227,12.616-5.227s9.245,1.857,12.616,5.227c4.244,4.244,12.205,16.021,17.666,27.902
			c-5.948,3.941-11.054,9.049-14.996,14.996C61.79,183.862,50.014,175.9,45.77,171.658c-3.371-3.371-5.227-7.851-5.227-12.616
			C40.542,154.277,42.398,149.797,45.77,146.425z M33.758,236.348c-9.838,0.001-17.843-8.004-17.843-17.843
			s8.005-17.843,17.843-17.843c5.984,0,19.92,2.696,32.19,7.232c-0.7,3.43-1.069,6.979-1.069,10.612s0.369,7.183,1.069,10.612
			C53.677,233.652,39.742,236.348,33.758,236.348z M71.002,290.584c-3.371,3.371-7.851,5.227-12.616,5.227
			s-9.245-1.857-12.616-5.227c-6.957-6.957-6.957-18.276,0-25.233c4.244-4.244,16.021-12.204,27.902-17.665
			c3.941,5.947,9.049,11.053,14.996,14.996C83.207,274.565,75.246,286.341,71.002,290.584z M117.848,320.439
			c-9.839,0-17.843-8.004-17.843-17.843c0-5.984,2.695-19.919,7.232-32.19c3.429,0.7,6.978,1.069,10.612,1.069
			s7.183-0.369,10.612-1.069c4.537,12.27,7.232,26.206,7.232,32.19C135.692,312.434,127.688,320.439,117.848,320.439z
			 M117.848,255.561c-20.433,0-37.056-16.623-37.056-37.056c0-20.433,16.623-37.056,37.056-37.056
			c20.433,0,37.056,16.623,37.056,37.056C154.905,238.938,138.281,255.561,117.848,255.561z M189.928,290.584
			c-3.371,3.371-7.851,5.227-12.616,5.227c-4.765,0-9.245-1.857-12.616-5.228c-4.244-4.243-12.205-16.019-17.666-27.902
			c5.947-3.941,11.054-9.048,14.996-14.996c11.882,5.46,23.658,13.421,27.902,17.665c3.371,3.371,5.227,7.851,5.227,12.617
			C195.155,282.733,193.299,287.213,189.928,290.584z M202.615,255.633c-0.461-0.521-0.935-1.036-1.433-1.534
			c-0.615-0.615-1.319-1.266-2.092-1.943c1.025,0.069,1.982,0.106,2.851,0.106c5.493,0,10.679-1.327,15.267-3.665
			c8.024-1.152,15.302-5.109,20.636-11.254c0.572-0.658,1.173-1.407,1.796-2.228c0.002,1.028,0.032,1.986,0.092,2.853
			c0.465,6.629,2.824,12.68,6.51,17.664H202.615z M274.653,253.411c-9.825,0.693-18.36-6.739-19.046-16.554
			c-0.418-5.967,1.298-20.053,4.964-32.608c2.268,0.296,4.566,0.45,6.884,0.45c1.255,0,2.516-0.045,3.779-0.133
			c3.598-0.251,7.115-0.862,10.514-1.8c5.381,11.921,9.042,25.631,9.459,31.599C291.894,244.18,284.468,252.724,274.653,253.411z
			 M270.121,188.694c-9.872,0.693-19.426-2.503-26.896-8.997c-7.471-6.493-11.966-15.507-12.656-25.38
			c-0.691-9.876,2.504-19.428,8.997-26.899c6.493-7.471,15.507-11.966,25.38-12.656c0.885-0.063,1.765-0.092,2.644-0.092
			c8.924,0,17.452,3.178,24.253,9.089c4.123,3.583,7.333,7.936,9.504,12.775c0.039,0.095,0.089,0.189,0.133,0.284
			c1.688,3.85,2.718,8.004,3.021,12.322c0.302,4.321-0.139,8.58-1.276,12.631c-0.029,0.096-0.064,0.192-0.089,0.289
			c-1.476,5.096-4.049,9.854-7.633,13.977C289.008,183.508,279.994,188.002,270.121,188.694z M307.514,186.475
			c2.367-2.722,4.423-5.641,6.162-8.709c12.222,4.617,24.507,11.727,29.033,15.66c7.426,6.453,8.216,17.745,1.762,25.17
			c-3.128,3.599-7.467,5.763-12.22,6.096c-4.749,0.333-9.351-1.206-12.95-4.333c-4.526-3.934-13.272-15.111-19.547-26.572
			C302.548,191.638,305.15,189.196,307.514,186.475z M325.459,462.002H136.989v-10.331h188.469V462.002z M458.507,194.495
			l-18.36-13.1l-5.83-28.737l50.523,36.047L458.507,194.495z"/>
	</g>
</g>
<g>
	<g>
		<path d="M145.381,206.87c-1.712-4.047-6.383-5.942-10.429-4.229c-4.048,1.712-5.94,6.382-4.228,10.429
			c0.727,1.718,1.095,3.546,1.095,5.435c0,7.704-6.267,13.97-13.971,13.97c-7.704,0-13.97-6.267-13.97-13.971
			c0-7.704,6.267-13.97,13.97-13.97c4.395,0,7.957-3.563,7.957-7.957c0-4.395-3.563-7.957-7.957-7.957
			c-16.479,0-29.884,13.406-29.884,29.884s13.406,29.884,29.884,29.884s29.885-13.406,29.885-29.884
			C147.734,214.474,146.942,210.56,145.381,206.87z"/>
	</g>
</g>
<g>
	<g>
		<path d="M297.346,149.638c-1.15-16.439-15.454-28.875-31.899-27.724c-7.963,0.557-15.232,4.182-20.469,10.208
			c-5.237,6.025-7.813,13.729-7.256,21.691c1.101,15.732,14.254,27.798,29.792,27.798c0.698,0,1.401-0.024,2.107-0.074
			C286.059,180.387,298.496,166.077,297.346,149.638z M268.511,165.663c-3.727,0.267-7.325-0.944-10.141-3.392
			c-2.817-2.448-4.511-5.846-4.772-9.569c-0.261-3.723,0.944-7.324,3.392-10.141s5.846-4.511,9.569-4.772
			c0.331-0.022,0.659-0.034,0.986-0.034c7.263,0,13.412,5.641,13.926,12.995C282.009,158.435,276.195,165.125,268.511,165.663z"/>
	</g>
</g>
</svg>